{
	"asset":{
		"generator":"Khronos glTF Blender I/O v4.1.62",
		"version":"2.0"
	},
	"scene":0,
	"scenes":[
		{
			"name":"Scene",
			"nodes":[
				0,
				1,
				2,
				3
			]
		}
	],
	"nodes":[
		{
			"mesh":0,
			"name":"pages"
		},
		{
			"mesh":1,
			"name":"bookFront"
		},
		{
			"mesh":2,
			"name":"bookInner"
		},
		{
			"mesh":3,
			"name":"bookSide"
		}
	],
	"materials":[
		{
			"doubleSided":true,
			"name":"pageMat",
			"pbrMetallicRoughness":{
				"baseColorFactor":[
					0.8227809071540833,
					0.6653880476951599,
					0.4910210371017456,
					1
				],
				"metallicFactor":0,
				"roughnessFactor":0.5
			}
		},
		{
			"doubleSided":true,
			"name":"bookFrontMat",
			"normalTexture":{
				"index":0
			},
			"pbrMetallicRoughness":{
				"baseColorTexture":{
					"index":1
				},
				"metallicFactor":0.5699999928474426,
				"roughnessFactor":0.27000001072883606
			}
		},
		{
			"doubleSided":true,
			"name":"bookInnerMat",
			"normalTexture":{
				"index":2
			},
			"pbrMetallicRoughness":{
				"metallicFactor":0.5699999928474426,
				"roughnessFactor":0.27000001072883606
			}
		},
		{
			"doubleSided":true,
			"name":"bookSideMat",
			"normalTexture":{
				"index":3
			},
			"pbrMetallicRoughness":{
				"baseColorTexture":{
					"index":4
				},
				"metallicFactor":0.5699999928474426,
				"roughnessFactor":0.27000001072883606
			}
		}
	],
	"meshes":[
		{
			"name":"pages",
			"primitives":[
				{
					"attributes":{
						"POSITION":0,
						"NORMAL":1,
						"TEXCOORD_0":2
					},
					"indices":3,
					"material":0
				}
			]
		},
		{
			"name":"bookFront",
			"primitives":[
				{
					"attributes":{
						"POSITION":4,
						"NORMAL":5,
						"TEXCOORD_0":6,
						"TEXCOORD_1":7
					},
					"indices":8,
					"material":1
				}
			]
		},
		{
			"name":"bookInner",
			"primitives":[
				{
					"attributes":{
						"POSITION":9,
						"NORMAL":10,
						"TEXCOORD_0":11,
						"TEXCOORD_1":12
					},
					"indices":13,
					"material":2
				}
			]
		},
		{
			"name":"bookSide",
			"primitives":[
				{
					"attributes":{
						"POSITION":14,
						"NORMAL":15,
						"TEXCOORD_0":16,
						"TEXCOORD_1":17
					},
					"indices":18,
					"material":3
				}
			]
		}
	],
	"textures":[
		{
			"sampler":0,
			"source":0
		},
		{
			"sampler":0,
			"source":1
		},
		{
			"sampler":0,
			"source":0
		},
		{
			"sampler":0,
			"source":2
		},
		{
			"sampler":0,
			"source":3
		}
	],
	"images":[
		{
			"mimeType":"image/jpeg",
			"name":"FabricNormal_2k",
			"uri":"bookTextures/FabricNormal_2k.jpg"
		},
		{
			"mimeType":"image/png",
			"name":"Persuasion",
			"uri":"bookTextures/Persuasion.png"
		},
		{
			"mimeType":"image/png",
			"name":"FabricNormal_side",
			"uri":"bookTextures/FabricNormal_side.png"
		},
		{
			"mimeType":"image/png",
			"name":"Persuasion_Side",
			"uri":"bookTextures/Persuasion_Side.png"
		}
	],
	"accessors":[
		{
			"bufferView":0,
			"componentType":5126,
			"count":1466,
			"max":[
				3.7406105995178223,
				0.8261457681655884,
				3.0114011764526367
			],
			"min":[
				0.004112383350729942,
				0.15925061702728271,
				-2.846869468688965
			],
			"type":"VEC3"
		},
		{
			"bufferView":1,
			"componentType":5126,
			"count":1466,
			"type":"VEC3"
		},
		{
			"bufferView":2,
			"componentType":5126,
			"count":1466,
			"type":"VEC2"
		},
		{
			"bufferView":3,
			"componentType":5123,
			"count":5280,
			"type":"SCALAR"
		},
		{
			"bufferView":4,
			"componentType":5126,
			"count":28,
			"max":[
				3.7602577209472656,
				0.9721416234970093,
				3.1189303398132324
			],
			"min":[
				0.08039999008178711,
				0.005348324775695801,
				-2.9011385440826416
			],
			"type":"VEC3"
		},
		{
			"bufferView":5,
			"componentType":5126,
			"count":28,
			"type":"VEC3"
		},
		{
			"bufferView":6,
			"componentType":5126,
			"count":28,
			"type":"VEC2"
		},
		{
			"bufferView":7,
			"componentType":5126,
			"count":28,
			"type":"VEC2"
		},
		{
			"bufferView":8,
			"componentType":5123,
			"count":60,
			"type":"SCALAR"
		},
		{
			"bufferView":9,
			"componentType":5126,
			"count":130,
			"max":[
				3.7602577209472656,
				0.9721416234970093,
				3.118931293487549
			],
			"min":[
				-0.11452719569206238,
				0.005348324775695801,
				-2.9011385440826416
			],
			"type":"VEC3"
		},
		{
			"bufferView":10,
			"componentType":5126,
			"count":130,
			"type":"VEC3"
		},
		{
			"bufferView":11,
			"componentType":5126,
			"count":130,
			"type":"VEC2"
		},
		{
			"bufferView":12,
			"componentType":5126,
			"count":130,
			"type":"VEC2"
		},
		{
			"bufferView":13,
			"componentType":5123,
			"count":336,
			"type":"SCALAR"
		},
		{
			"bufferView":14,
			"componentType":5126,
			"count":26,
			"max":[
				0.08420555293560028,
				0.9721416234970093,
				3.118931293487549
			],
			"min":[
				-0.11452719569206238,
				0.005348324775695801,
				-2.9011385440826416
			],
			"type":"VEC3"
		},
		{
			"bufferView":15,
			"componentType":5126,
			"count":26,
			"type":"VEC3"
		},
		{
			"bufferView":16,
			"componentType":5126,
			"count":26,
			"type":"VEC2"
		},
		{
			"bufferView":17,
			"componentType":5126,
			"count":26,
			"type":"VEC2"
		},
		{
			"bufferView":18,
			"componentType":5123,
			"count":60,
			"type":"SCALAR"
		}
	],
	"bufferViews":[
		{
			"buffer":0,
			"byteLength":17592,
			"byteOffset":0,
			"target":34962
		},
		{
			"buffer":0,
			"byteLength":17592,
			"byteOffset":17592,
			"target":34962
		},
		{
			"buffer":0,
			"byteLength":11728,
			"byteOffset":35184,
			"target":34962
		},
		{
			"buffer":0,
			"byteLength":10560,
			"byteOffset":46912,
			"target":34963
		},
		{
			"buffer":0,
			"byteLength":336,
			"byteOffset":57472,
			"target":34962
		},
		{
			"buffer":0,
			"byteLength":336,
			"byteOffset":57808,
			"target":34962
		},
		{
			"buffer":0,
			"byteLength":224,
			"byteOffset":58144,
			"target":34962
		},
		{
			"buffer":0,
			"byteLength":224,
			"byteOffset":58368,
			"target":34962
		},
		{
			"buffer":0,
			"byteLength":120,
			"byteOffset":58592,
			"target":34963
		},
		{
			"buffer":0,
			"byteLength":1560,
			"byteOffset":58712,
			"target":34962
		},
		{
			"buffer":0,
			"byteLength":1560,
			"byteOffset":60272,
			"target":34962
		},
		{
			"buffer":0,
			"byteLength":1040,
			"byteOffset":61832,
			"target":34962
		},
		{
			"buffer":0,
			"byteLength":1040,
			"byteOffset":62872,
			"target":34962
		},
		{
			"buffer":0,
			"byteLength":672,
			"byteOffset":63912,
			"target":34963
		},
		{
			"buffer":0,
			"byteLength":312,
			"byteOffset":64584,
			"target":34962
		},
		{
			"buffer":0,
			"byteLength":312,
			"byteOffset":64896,
			"target":34962
		},
		{
			"buffer":0,
			"byteLength":208,
			"byteOffset":65208,
			"target":34962
		},
		{
			"buffer":0,
			"byteLength":208,
			"byteOffset":65416,
			"target":34962
		},
		{
			"buffer":0,
			"byteLength":120,
			"byteOffset":65624,
			"target":34963
		}
	],
	"samplers":[
		{
			"magFilter":9729,
			"minFilter":9987
		}
	],
	"buffers":[
		{
			"byteLength":65744,
			"uri":"book_NoBone.bin"
		}
	]
}
