{
	"asset":{
		"generator":"Khronos glTF Blender I/O v4.1.62",
		"version":"2.0"
	},
	"scene":0,
	"scenes":[
		{
			"name":"Scene",
			"nodes":[
				4
			]
		}
	],
	"nodes":[
		{
			"mesh":0,
			"name":"bookFront",
			"translation":[
				-1.9172899723052979,
				-0.4891360104084015,
				-0.10993999987840652
			]
		},
		{
			"mesh":1,
			"name":"bookInner",
			"translation":[
				-1.9172899723052979,
				-0.4891360104084015,
				-0.10993999987840652
			]
		},
		{
			"mesh":2,
			"name":"bookSide",
			"translation":[
				-1.9172899723052979,
				-0.4891360104084015,
				-0.10993999987840652
			]
		},
		{
			"mesh":3,
			"name":"pages",
			"translation":[
				-1.9172899723052979,
				-0.4891360104084015,
				-0.10993999987840652
			]
		},
		{
			"children":[
				0,
				1,
				2,
				3
			],
			"name":"Empty",
			"translation":[
				1.9172899723052979,
				0.4891360104084015,
				0.10993999987840652
			]
		}
	],
	"materials":[
		{
			"doubleSided":true,
			"name":"bookFrontMat",
			"normalTexture":{
				"index":0
			},
			"pbrMetallicRoughness":{
				"baseColorTexture":{
					"index":1
				},
				"metallicFactor":0.5699999928474426,
				"roughnessFactor":0.27000001072883606
			}
		},
		{
			"doubleSided":true,
			"name":"bookInnerMat",
			"normalTexture":{
				"index":2
			},
			"pbrMetallicRoughness":{
				"metallicFactor":0.5699999928474426,
				"roughnessFactor":0.27000001072883606
			}
		},
		{
			"doubleSided":true,
			"name":"bookSideMat",
			"normalTexture":{
				"index":3
			},
			"pbrMetallicRoughness":{
				"baseColorTexture":{
					"index":4
				},
				"metallicFactor":0.5699999928474426,
				"roughnessFactor":0.27000001072883606
			}
		},
		{
			"doubleSided":true,
			"name":"pageMat",
			"pbrMetallicRoughness":{
				"baseColorFactor":[
					0.8227809071540833,
					0.6653880476951599,
					0.4910210371017456,
					1
				],
				"metallicFactor":0,
				"roughnessFactor":0.5
			}
		}
	],
	"meshes":[
		{
			"name":"bookFront",
			"primitives":[
				{
					"attributes":{
						"POSITION":0,
						"NORMAL":1,
						"TEXCOORD_0":2,
						"TEXCOORD_1":3
					},
					"indices":4,
					"material":0
				}
			]
		},
		{
			"name":"bookInner",
			"primitives":[
				{
					"attributes":{
						"POSITION":5,
						"NORMAL":6,
						"TEXCOORD_0":7,
						"TEXCOORD_1":8
					},
					"indices":9,
					"material":1
				}
			]
		},
		{
			"name":"bookSide",
			"primitives":[
				{
					"attributes":{
						"POSITION":10,
						"NORMAL":11,
						"TEXCOORD_0":12,
						"TEXCOORD_1":13
					},
					"indices":14,
					"material":2
				}
			]
		},
		{
			"name":"pages",
			"primitives":[
				{
					"attributes":{
						"POSITION":15,
						"NORMAL":16,
						"TEXCOORD_0":17
					},
					"indices":18,
					"material":3
				}
			]
		}
	],
	"textures":[
		{
			"sampler":0,
			"source":0
		},
		{
			"sampler":0,
			"source":1
		},
		{
			"sampler":0,
			"source":0
		},
		{
			"sampler":0,
			"source":2
		},
		{
			"sampler":0,
			"source":3
		}
	],
	"images":[
		{
			"mimeType":"image/jpeg",
			"name":"FabricNormal_2k",
			"uri":"textures/FabricNormal_2k.jpg"
		},
		{
			"mimeType":"image/png",
			"name":"Persuasion",
			"uri":"textures/Persuasion.png"
		},
		{
			"mimeType":"image/png",
			"name":"FabricNormal_side",
			"uri":"textures/FabricNormal_side.png"
		},
		{
			"mimeType":"image/png",
			"name":"Persuasion_Side",
			"uri":"textures/Persuasion_Side.png"
		}
	],
	"accessors":[
		{
			"bufferView":0,
			"componentType":5126,
			"count":28,
			"max":[
				3.7602577209472656,
				0.9721415638923645,
				3.1189308166503906
			],
			"min":[
				0.08039987087249756,
				0.005348265171051025,
				-2.9011380672454834
			],
			"type":"VEC3"
		},
		{
			"bufferView":1,
			"componentType":5126,
			"count":28,
			"type":"VEC3"
		},
		{
			"bufferView":2,
			"componentType":5126,
			"count":28,
			"type":"VEC2"
		},
		{
			"bufferView":3,
			"componentType":5126,
			"count":28,
			"type":"VEC2"
		},
		{
			"bufferView":4,
			"componentType":5123,
			"count":60,
			"type":"SCALAR"
		},
		{
			"bufferView":5,
			"componentType":5126,
			"count":130,
			"max":[
				3.7602577209472656,
				0.9721416234970093,
				3.118931293487549
			],
			"min":[
				-0.11452719569206238,
				0.005348324775695801,
				-2.9011385440826416
			],
			"type":"VEC3"
		},
		{
			"bufferView":6,
			"componentType":5126,
			"count":130,
			"type":"VEC3"
		},
		{
			"bufferView":7,
			"componentType":5126,
			"count":130,
			"type":"VEC2"
		},
		{
			"bufferView":8,
			"componentType":5126,
			"count":130,
			"type":"VEC2"
		},
		{
			"bufferView":9,
			"componentType":5123,
			"count":336,
			"type":"SCALAR"
		},
		{
			"bufferView":10,
			"componentType":5126,
			"count":26,
			"max":[
				0.08420555293560028,
				0.9721416234970093,
				3.118931293487549
			],
			"min":[
				-0.11452719569206238,
				0.005348324775695801,
				-2.9011385440826416
			],
			"type":"VEC3"
		},
		{
			"bufferView":11,
			"componentType":5126,
			"count":26,
			"type":"VEC3"
		},
		{
			"bufferView":12,
			"componentType":5126,
			"count":26,
			"type":"VEC2"
		},
		{
			"bufferView":13,
			"componentType":5126,
			"count":26,
			"type":"VEC2"
		},
		{
			"bufferView":14,
			"componentType":5123,
			"count":60,
			"type":"SCALAR"
		},
		{
			"bufferView":15,
			"componentType":5126,
			"count":40,
			"max":[
				3.7212812900543213,
				0.8709602355957031,
				3.0094518661499023
			],
			"min":[
				0.06642776727676392,
				0.10748559236526489,
				-2.8120880126953125
			],
			"type":"VEC3"
		},
		{
			"bufferView":16,
			"componentType":5126,
			"count":40,
			"type":"VEC3"
		},
		{
			"bufferView":17,
			"componentType":5126,
			"count":40,
			"type":"VEC2"
		},
		{
			"bufferView":18,
			"componentType":5123,
			"count":60,
			"type":"SCALAR"
		}
	],
	"bufferViews":[
		{
			"buffer":0,
			"byteLength":336,
			"byteOffset":0,
			"target":34962
		},
		{
			"buffer":0,
			"byteLength":336,
			"byteOffset":336,
			"target":34962
		},
		{
			"buffer":0,
			"byteLength":224,
			"byteOffset":672,
			"target":34962
		},
		{
			"buffer":0,
			"byteLength":224,
			"byteOffset":896,
			"target":34962
		},
		{
			"buffer":0,
			"byteLength":120,
			"byteOffset":1120,
			"target":34963
		},
		{
			"buffer":0,
			"byteLength":1560,
			"byteOffset":1240,
			"target":34962
		},
		{
			"buffer":0,
			"byteLength":1560,
			"byteOffset":2800,
			"target":34962
		},
		{
			"buffer":0,
			"byteLength":1040,
			"byteOffset":4360,
			"target":34962
		},
		{
			"buffer":0,
			"byteLength":1040,
			"byteOffset":5400,
			"target":34962
		},
		{
			"buffer":0,
			"byteLength":672,
			"byteOffset":6440,
			"target":34963
		},
		{
			"buffer":0,
			"byteLength":312,
			"byteOffset":7112,
			"target":34962
		},
		{
			"buffer":0,
			"byteLength":312,
			"byteOffset":7424,
			"target":34962
		},
		{
			"buffer":0,
			"byteLength":208,
			"byteOffset":7736,
			"target":34962
		},
		{
			"buffer":0,
			"byteLength":208,
			"byteOffset":7944,
			"target":34962
		},
		{
			"buffer":0,
			"byteLength":120,
			"byteOffset":8152,
			"target":34963
		},
		{
			"buffer":0,
			"byteLength":480,
			"byteOffset":8272,
			"target":34962
		},
		{
			"buffer":0,
			"byteLength":480,
			"byteOffset":8752,
			"target":34962
		},
		{
			"buffer":0,
			"byteLength":320,
			"byteOffset":9232,
			"target":34962
		},
		{
			"buffer":0,
			"byteLength":120,
			"byteOffset":9552,
			"target":34963
		}
	],
	"samplers":[
		{
			"magFilter":9729,
			"minFilter":9987
		}
	],
	"buffers":[
		{
			"byteLength":9672,
			"uri":"book_NoBone2.bin"
		}
	]
}
