{
	"asset":{
		"generator":"Khronos glTF Blender I/O v4.1.62",
		"version":"2.0"
	},
	"scene":0,
	"scenes":[
		{
			"name":"Scene",
			"nodes":[
				20,
				21,
				22,
				23
			]
		}
	],
	"nodes":[
		{
			"name":"BoneFront",
			"rotation":[
				-9.23605725233756e-08,
				-1.2961193363025814e-07,
				-0.7071067690849304,
				0.7071067690849304
			],
			"translation":[
				1.8592193340438712e-09,
				0.9300199747085571,
				2.302491530770112e-12
			]
		},
		{
			"name":"BonePageL.007",
			"rotation":[
				4.235164736271502e-22,
				0,
				4.4968846820832797e-20,
				1
			],
			"scale":[
				1,
				0.9999999403953552,
				1
			],
			"translation":[
				4.2945558220708335e-09,
				0.4382571876049042,
				-6.582467904081568e-11
			]
		},
		{
			"children":[
				1
			],
			"name":"BonePageL.006",
			"rotation":[
				4.235164736271502e-22,
				0,
				4.4968846820832797e-20,
				1
			],
			"translation":[
				4.2945558220708335e-09,
				0.4382576644420624,
				-6.582467904081568e-11
			]
		},
		{
			"children":[
				2
			],
			"name":"BonePageL.005",
			"rotation":[
				-1.2705494208814505e-21,
				0,
				4.4968846820832797e-20,
				1
			],
			"translation":[
				4.2945558220708335e-09,
				0.4382573068141937,
				-6.582467904081568e-11
			]
		},
		{
			"children":[
				3
			],
			"name":"BonePageL.004",
			"rotation":[
				-1.2705494208814505e-21,
				0,
				4.4968846820832797e-20,
				1
			],
			"translation":[
				4.2945558220708335e-09,
				0.4382575452327728,
				-6.582467904081568e-11
			]
		},
		{
			"children":[
				4
			],
			"name":"BonePageL.003",
			"rotation":[
				-1.2705494208814505e-21,
				0,
				4.4968846820832797e-20,
				1
			],
			"translation":[
				4.2945558220708335e-09,
				0.4382574260234833,
				-6.582467904081568e-11
			]
		},
		{
			"children":[
				5
			],
			"name":"BonePageL.002",
			"rotation":[
				1.0574746825021447e-21,
				0,
				-1.0781525043575366e-16,
				1
			],
			"scale":[
				1,
				0.9999999403953552,
				1
			],
			"translation":[
				4.294556266160043e-09,
				0.4382573068141937,
				-6.582467904081568e-11
			]
		},
		{
			"children":[
				6
			],
			"name":"BonePageL.001",
			"rotation":[
				-1.5748828630091083e-10,
				2.9059953021715046e-07,
				4.1753565938051906e-08,
				1
			],
			"translation":[
				9.996316663318794e-09,
				0.5711348652839661,
				1.1962268675613785e-10
			]
		},
		{
			"children":[
				7
			],
			"name":"BonePageL",
			"rotation":[
				5.030560146224161e-07,
				4.6558199073842843e-07,
				-0.7071067690849304,
				0.7071067690849304
			],
			"translation":[
				0.02846725843846798,
				0.505311906337738,
				-0.0022661671973764896
			]
		},
		{
			"children":[
				0,
				8
			],
			"name":"BoneSide",
			"rotation":[
				-7.904130683300536e-09,
				4.51554882374694e-08,
				-0.7071067690849304,
				0.7071067690849304
			],
			"translation":[
				9.624157026877356e-10,
				1.9027061462402344,
				-1.1242642559104732e-13
			]
		},
		{
			"children":[
				9
			],
			"name":"Bone",
			"rotation":[
				2.6529809460384968e-08,
				-2.6529809460384968e-08,
				0.7071067690849304,
				0.7071067690849304
			],
			"scale":[
				1,
				0.9999999403953552,
				1
			],
			"translation":[
				1.9332726001739502,
				0.03936886787414551,
				6.502866744995117e-05
			]
		},
		{
			"name":"BonePageR.007",
			"scale":[
				1,
				0.9999999403953552,
				1
			],
			"translation":[
				4.294556266160043e-09,
				0.43825721740722656,
				-6.59383658785373e-11
			]
		},
		{
			"children":[
				11
			],
			"name":"BonePageR.006",
			"translation":[
				4.294556266160043e-09,
				0.43825769424438477,
				-6.59383658785373e-11
			]
		},
		{
			"children":[
				12
			],
			"name":"BonePageR.005",
			"translation":[
				4.294556266160043e-09,
				0.4382573366165161,
				-6.59383658785373e-11
			]
		},
		{
			"children":[
				13
			],
			"name":"BonePageR.004",
			"translation":[
				4.294556266160043e-09,
				0.4382575750350952,
				-6.59383658785373e-11
			]
		},
		{
			"children":[
				14
			],
			"name":"BonePageR.003",
			"translation":[
				4.294556266160043e-09,
				0.43825745582580566,
				-6.59383658785373e-11
			]
		},
		{
			"children":[
				15
			],
			"name":"BonePageR.002",
			"scale":[
				1,
				0.9999999403953552,
				1
			],
			"translation":[
				4.294556266160043e-09,
				0.43825745582580566,
				-6.59383658785373e-11
			]
		},
		{
			"children":[
				16
			],
			"name":"BonePageR.001",
			"rotation":[
				0,
				2.3841863594498136e-07,
				0,
				1
			],
			"translation":[
				3.244970736560049e-09,
				0.5711348056793213,
				5.1954884838778526e-11
			]
		},
		{
			"children":[
				17
			],
			"name":"BonePageR",
			"rotation":[
				5.212164637669048e-07,
				5.212164637669048e-07,
				-0.7071067690849304,
				0.7071067690849304
			],
			"scale":[
				1,
				0.9999999403953552,
				1
			],
			"translation":[
				0.059033751487731934,
				0.5446808338165283,
				-0.0022011399269104004
			]
		},
		{
			"name":"neutral_bone",
			"rotation":[
				-0.7071067690849304,
				0,
				0,
				0.7071067690849304
			]
		},
		{
			"children":[
				10,
				18,
				19
			],
			"name":"pageArmature"
		},
		{
			"mesh":0,
			"name":"pageFront",
			"skin":0
		},
		{
			"mesh":1,
			"name":"pageBack",
			"skin":0
		},
		{
			"mesh":2,
			"name":"bookCover",
			"skin":0
		}
	],
	"animations":[
		{
			"channels":[
				{
					"sampler":0,
					"target":{
						"node":10,
						"path":"translation"
					}
				},
				{
					"sampler":1,
					"target":{
						"node":10,
						"path":"rotation"
					}
				},
				{
					"sampler":2,
					"target":{
						"node":10,
						"path":"scale"
					}
				},
				{
					"sampler":3,
					"target":{
						"node":9,
						"path":"translation"
					}
				},
				{
					"sampler":4,
					"target":{
						"node":9,
						"path":"rotation"
					}
				},
				{
					"sampler":5,
					"target":{
						"node":9,
						"path":"scale"
					}
				},
				{
					"sampler":6,
					"target":{
						"node":0,
						"path":"translation"
					}
				},
				{
					"sampler":7,
					"target":{
						"node":0,
						"path":"rotation"
					}
				},
				{
					"sampler":8,
					"target":{
						"node":0,
						"path":"scale"
					}
				},
				{
					"sampler":9,
					"target":{
						"node":8,
						"path":"translation"
					}
				},
				{
					"sampler":10,
					"target":{
						"node":8,
						"path":"rotation"
					}
				},
				{
					"sampler":11,
					"target":{
						"node":8,
						"path":"scale"
					}
				},
				{
					"sampler":12,
					"target":{
						"node":7,
						"path":"translation"
					}
				},
				{
					"sampler":13,
					"target":{
						"node":7,
						"path":"rotation"
					}
				},
				{
					"sampler":14,
					"target":{
						"node":7,
						"path":"scale"
					}
				},
				{
					"sampler":15,
					"target":{
						"node":6,
						"path":"translation"
					}
				},
				{
					"sampler":16,
					"target":{
						"node":6,
						"path":"rotation"
					}
				},
				{
					"sampler":17,
					"target":{
						"node":6,
						"path":"scale"
					}
				},
				{
					"sampler":18,
					"target":{
						"node":5,
						"path":"translation"
					}
				},
				{
					"sampler":19,
					"target":{
						"node":5,
						"path":"rotation"
					}
				},
				{
					"sampler":20,
					"target":{
						"node":5,
						"path":"scale"
					}
				},
				{
					"sampler":21,
					"target":{
						"node":4,
						"path":"translation"
					}
				},
				{
					"sampler":22,
					"target":{
						"node":4,
						"path":"rotation"
					}
				},
				{
					"sampler":23,
					"target":{
						"node":4,
						"path":"scale"
					}
				},
				{
					"sampler":24,
					"target":{
						"node":3,
						"path":"translation"
					}
				},
				{
					"sampler":25,
					"target":{
						"node":3,
						"path":"rotation"
					}
				},
				{
					"sampler":26,
					"target":{
						"node":3,
						"path":"scale"
					}
				},
				{
					"sampler":27,
					"target":{
						"node":2,
						"path":"translation"
					}
				},
				{
					"sampler":28,
					"target":{
						"node":2,
						"path":"rotation"
					}
				},
				{
					"sampler":29,
					"target":{
						"node":2,
						"path":"scale"
					}
				},
				{
					"sampler":30,
					"target":{
						"node":1,
						"path":"translation"
					}
				},
				{
					"sampler":31,
					"target":{
						"node":1,
						"path":"rotation"
					}
				},
				{
					"sampler":32,
					"target":{
						"node":1,
						"path":"scale"
					}
				},
				{
					"sampler":33,
					"target":{
						"node":18,
						"path":"translation"
					}
				},
				{
					"sampler":34,
					"target":{
						"node":18,
						"path":"rotation"
					}
				},
				{
					"sampler":35,
					"target":{
						"node":18,
						"path":"scale"
					}
				},
				{
					"sampler":36,
					"target":{
						"node":17,
						"path":"translation"
					}
				},
				{
					"sampler":37,
					"target":{
						"node":17,
						"path":"rotation"
					}
				},
				{
					"sampler":38,
					"target":{
						"node":17,
						"path":"scale"
					}
				},
				{
					"sampler":39,
					"target":{
						"node":16,
						"path":"translation"
					}
				},
				{
					"sampler":40,
					"target":{
						"node":16,
						"path":"rotation"
					}
				},
				{
					"sampler":41,
					"target":{
						"node":16,
						"path":"scale"
					}
				},
				{
					"sampler":42,
					"target":{
						"node":15,
						"path":"translation"
					}
				},
				{
					"sampler":43,
					"target":{
						"node":15,
						"path":"rotation"
					}
				},
				{
					"sampler":44,
					"target":{
						"node":15,
						"path":"scale"
					}
				},
				{
					"sampler":45,
					"target":{
						"node":14,
						"path":"translation"
					}
				},
				{
					"sampler":46,
					"target":{
						"node":14,
						"path":"rotation"
					}
				},
				{
					"sampler":47,
					"target":{
						"node":14,
						"path":"scale"
					}
				},
				{
					"sampler":48,
					"target":{
						"node":13,
						"path":"translation"
					}
				},
				{
					"sampler":49,
					"target":{
						"node":13,
						"path":"rotation"
					}
				},
				{
					"sampler":50,
					"target":{
						"node":13,
						"path":"scale"
					}
				},
				{
					"sampler":51,
					"target":{
						"node":12,
						"path":"translation"
					}
				},
				{
					"sampler":52,
					"target":{
						"node":12,
						"path":"rotation"
					}
				},
				{
					"sampler":53,
					"target":{
						"node":12,
						"path":"scale"
					}
				},
				{
					"sampler":54,
					"target":{
						"node":11,
						"path":"translation"
					}
				},
				{
					"sampler":55,
					"target":{
						"node":11,
						"path":"rotation"
					}
				},
				{
					"sampler":56,
					"target":{
						"node":11,
						"path":"scale"
					}
				},
				{
					"sampler":57,
					"target":{
						"node":20,
						"path":"translation"
					}
				},
				{
					"sampler":58,
					"target":{
						"node":20,
						"path":"rotation"
					}
				},
				{
					"sampler":59,
					"target":{
						"node":20,
						"path":"scale"
					}
				},
				{
					"sampler":60,
					"target":{
						"node":21,
						"path":"weights"
					}
				},
				{
					"sampler":61,
					"target":{
						"node":22,
						"path":"weights"
					}
				}
			],
			"name":"BookOpenAnimation",
			"samplers":[
				{
					"input":52,
					"interpolation":"STEP",
					"output":53
				},
				{
					"input":52,
					"interpolation":"STEP",
					"output":54
				},
				{
					"input":52,
					"interpolation":"STEP",
					"output":55
				},
				{
					"input":52,
					"interpolation":"STEP",
					"output":56
				},
				{
					"input":57,
					"interpolation":"LINEAR",
					"output":58
				},
				{
					"input":52,
					"interpolation":"STEP",
					"output":59
				},
				{
					"input":52,
					"interpolation":"LINEAR",
					"output":60
				},
				{
					"input":57,
					"interpolation":"LINEAR",
					"output":61
				},
				{
					"input":52,
					"interpolation":"STEP",
					"output":62
				},
				{
					"input":57,
					"interpolation":"LINEAR",
					"output":63
				},
				{
					"input":57,
					"interpolation":"LINEAR",
					"output":64
				},
				{
					"input":57,
					"interpolation":"LINEAR",
					"output":65
				},
				{
					"input":52,
					"interpolation":"LINEAR",
					"output":66
				},
				{
					"input":57,
					"interpolation":"LINEAR",
					"output":67
				},
				{
					"input":52,
					"interpolation":"STEP",
					"output":68
				},
				{
					"input":52,
					"interpolation":"LINEAR",
					"output":69
				},
				{
					"input":57,
					"interpolation":"LINEAR",
					"output":70
				},
				{
					"input":52,
					"interpolation":"STEP",
					"output":71
				},
				{
					"input":52,
					"interpolation":"LINEAR",
					"output":72
				},
				{
					"input":57,
					"interpolation":"LINEAR",
					"output":73
				},
				{
					"input":52,
					"interpolation":"STEP",
					"output":74
				},
				{
					"input":52,
					"interpolation":"LINEAR",
					"output":75
				},
				{
					"input":57,
					"interpolation":"LINEAR",
					"output":76
				},
				{
					"input":52,
					"interpolation":"STEP",
					"output":77
				},
				{
					"input":52,
					"interpolation":"LINEAR",
					"output":78
				},
				{
					"input":57,
					"interpolation":"LINEAR",
					"output":79
				},
				{
					"input":52,
					"interpolation":"STEP",
					"output":80
				},
				{
					"input":52,
					"interpolation":"LINEAR",
					"output":81
				},
				{
					"input":57,
					"interpolation":"LINEAR",
					"output":82
				},
				{
					"input":52,
					"interpolation":"STEP",
					"output":83
				},
				{
					"input":52,
					"interpolation":"LINEAR",
					"output":84
				},
				{
					"input":57,
					"interpolation":"LINEAR",
					"output":85
				},
				{
					"input":52,
					"interpolation":"STEP",
					"output":86
				},
				{
					"input":57,
					"interpolation":"LINEAR",
					"output":87
				},
				{
					"input":57,
					"interpolation":"LINEAR",
					"output":88
				},
				{
					"input":52,
					"interpolation":"STEP",
					"output":89
				},
				{
					"input":52,
					"interpolation":"LINEAR",
					"output":90
				},
				{
					"input":57,
					"interpolation":"LINEAR",
					"output":91
				},
				{
					"input":52,
					"interpolation":"STEP",
					"output":92
				},
				{
					"input":52,
					"interpolation":"LINEAR",
					"output":93
				},
				{
					"input":57,
					"interpolation":"LINEAR",
					"output":94
				},
				{
					"input":52,
					"interpolation":"STEP",
					"output":95
				},
				{
					"input":52,
					"interpolation":"LINEAR",
					"output":96
				},
				{
					"input":57,
					"interpolation":"LINEAR",
					"output":97
				},
				{
					"input":52,
					"interpolation":"STEP",
					"output":98
				},
				{
					"input":52,
					"interpolation":"LINEAR",
					"output":99
				},
				{
					"input":57,
					"interpolation":"LINEAR",
					"output":100
				},
				{
					"input":52,
					"interpolation":"STEP",
					"output":101
				},
				{
					"input":52,
					"interpolation":"LINEAR",
					"output":102
				},
				{
					"input":57,
					"interpolation":"LINEAR",
					"output":103
				},
				{
					"input":52,
					"interpolation":"STEP",
					"output":104
				},
				{
					"input":52,
					"interpolation":"LINEAR",
					"output":105
				},
				{
					"input":57,
					"interpolation":"LINEAR",
					"output":106
				},
				{
					"input":52,
					"interpolation":"STEP",
					"output":107
				},
				{
					"input":52,
					"interpolation":"LINEAR",
					"output":108
				},
				{
					"input":57,
					"interpolation":"LINEAR",
					"output":109
				},
				{
					"input":52,
					"interpolation":"STEP",
					"output":110
				},
				{
					"input":52,
					"interpolation":"STEP",
					"output":111
				},
				{
					"input":52,
					"interpolation":"STEP",
					"output":112
				},
				{
					"input":52,
					"interpolation":"STEP",
					"output":113
				},
				{
					"input":114,
					"interpolation":"LINEAR",
					"output":115
				},
				{
					"input":116,
					"interpolation":"LINEAR",
					"output":117
				}
			]
		}
	],
	"materials":[
		{
			"doubleSided":true,
			"name":"pageMat",
			"pbrMetallicRoughness":{
				"baseColorFactor":[
					0.8227809071540833,
					0.6653880476951599,
					0.4910210371017456,
					1
				],
				"metallicFactor":0,
				"roughnessFactor":0.5
			}
		},
		{
			"doubleSided":true,
			"name":"pageMatL",
			"pbrMetallicRoughness":{
				"baseColorFactor":[
					0.8235406279563904,
					0.20654694736003876,
					0.17220433056354523,
					1
				],
				"metallicFactor":0,
				"roughnessFactor":0.5
			}
		},
		{
			"doubleSided":true,
			"name":"pageMatR",
			"pbrMetallicRoughness":{
				"baseColorFactor":[
					0.0016691653290763497,
					0.8230161666870117,
					0.04251261055469513,
					1
				],
				"metallicFactor":0,
				"roughnessFactor":0.5
			}
		},
		{
			"doubleSided":true,
			"name":"bookSideMat",
			"normalTexture":{
				"index":0
			},
			"pbrMetallicRoughness":{
				"baseColorTexture":{
					"index":1
				},
				"metallicFactor":0.5699999928474426,
				"roughnessFactor":0.27000001072883606
			}
		},
		{
			"doubleSided":true,
			"name":"bookInnerMat",
			"normalTexture":{
				"index":2
			},
			"pbrMetallicRoughness":{
				"metallicFactor":0.5699999928474426,
				"roughnessFactor":0.27000001072883606
			}
		},
		{
			"doubleSided":true,
			"name":"bookFrontMat",
			"normalTexture":{
				"index":3
			},
			"pbrMetallicRoughness":{
				"baseColorTexture":{
					"index":4
				},
				"metallicFactor":0.5699999928474426,
				"roughnessFactor":0.27000001072883606
			}
		}
	],
	"meshes":[
		{
			"extras":{
				"targetNames":[
					"Key 1"
				]
			},
			"name":"pageFront",
			"primitives":[
				{
					"attributes":{
						"POSITION":0,
						"NORMAL":1,
						"TEXCOORD_0":2,
						"JOINTS_0":3,
						"WEIGHTS_0":4
					},
					"indices":5,
					"material":0,
					"targets":[
						{
							"POSITION":6,
							"NORMAL":7
						}
					]
				},
				{
					"attributes":{
						"POSITION":8,
						"NORMAL":9,
						"TEXCOORD_0":10,
						"JOINTS_0":11,
						"WEIGHTS_0":12
					},
					"indices":13,
					"material":1,
					"targets":[
						{
							"POSITION":14,
							"NORMAL":15
						}
					]
				}
			],
			"weights":[
				0
			]
		},
		{
			"extras":{
				"targetNames":[
					"Key 1"
				]
			},
			"name":"pageBack",
			"primitives":[
				{
					"attributes":{
						"POSITION":17,
						"NORMAL":18,
						"TEXCOORD_0":19,
						"JOINTS_0":20,
						"WEIGHTS_0":21
					},
					"indices":5,
					"material":0,
					"targets":[
						{
							"POSITION":22,
							"NORMAL":23
						}
					]
				},
				{
					"attributes":{
						"POSITION":24,
						"NORMAL":25,
						"TEXCOORD_0":26,
						"JOINTS_0":27,
						"WEIGHTS_0":28
					},
					"indices":13,
					"material":2,
					"targets":[
						{
							"POSITION":29,
							"NORMAL":30
						}
					]
				}
			],
			"weights":[
				0
			]
		},
		{
			"name":"bookCover",
			"primitives":[
				{
					"attributes":{
						"POSITION":31,
						"NORMAL":32,
						"TEXCOORD_0":33,
						"TEXCOORD_1":34,
						"JOINTS_0":35,
						"WEIGHTS_0":36
					},
					"indices":37,
					"material":3
				},
				{
					"attributes":{
						"POSITION":38,
						"NORMAL":39,
						"TEXCOORD_0":40,
						"TEXCOORD_1":41,
						"JOINTS_0":42,
						"WEIGHTS_0":43
					},
					"indices":44,
					"material":4
				},
				{
					"attributes":{
						"POSITION":45,
						"NORMAL":46,
						"TEXCOORD_0":47,
						"TEXCOORD_1":48,
						"JOINTS_0":49,
						"WEIGHTS_0":50
					},
					"indices":51,
					"material":5
				}
			]
		}
	],
	"textures":[
		{
			"sampler":0,
			"source":0
		},
		{
			"sampler":0,
			"source":1
		},
		{
			"sampler":0,
			"source":0
		},
		{
			"sampler":0,
			"source":0
		},
		{
			"sampler":0,
			"source":2
		}
	],
	"images":[
		{
			"mimeType":"image/jpeg",
			"name":"FabricNormal_2k",
			"uri":"bookTextures/FabricNormal_2k.jpg"
		},
		{
			"mimeType":"image/png",
			"name":"Persuasion_Side",
			"uri":"bookTextures/Persuasion_Side.png"
		},
		{
			"mimeType":"image/png",
			"name":"Persuasion",
			"uri":"bookTextures/Persuasion.png"
		}
	],
	"skins":[
		{
			"inverseBindMatrices":16,
			"joints":[
				10,
				9,
				0,
				8,
				7,
				6,
				5,
				4,
				3,
				2,
				1,
				18,
				17,
				16,
				15,
				14,
				13,
				12,
				11,
				19
			],
			"name":"pageArmature"
		}
	],
	"accessors":[
		{
			"bufferView":0,
			"componentType":5126,
			"count":685,
			"max":[
				3.738354206085205,
				0.8261457681655884,
				3.0094518661499023
			],
			"min":[
				0.004228994250297546,
				0.5432649850845337,
				-2.846869468688965
			],
			"type":"VEC3"
		},
		{
			"bufferView":1,
			"componentType":5126,
			"count":685,
			"type":"VEC3"
		},
		{
			"bufferView":2,
			"componentType":5126,
			"count":685,
			"type":"VEC2"
		},
		{
			"bufferView":3,
			"componentType":5121,
			"count":685,
			"type":"VEC4"
		},
		{
			"bufferView":4,
			"componentType":5126,
			"count":685,
			"type":"VEC4"
		},
		{
			"bufferView":5,
			"componentType":5123,
			"count":2448,
			"type":"SCALAR"
		},
		{
			"bufferView":6,
			"componentType":5126,
			"count":685,
			"max":[
				0.2875928282737732,
				0,
				0
			],
			"min":[
				0.0016678571701049805,
				0,
				0
			],
			"type":"VEC3"
		},
		{
			"componentType":5126,
			"count":685,
			"sparse":{
				"count":100,
				"indices":{
					"bufferView":7,
					"componentType":5123
				},
				"values":{
					"bufferView":8
				}
			},
			"type":"VEC3"
		},
		{
			"bufferView":9,
			"componentType":5126,
			"count":45,
			"max":[
				3.731271266937256,
				0.5432649850845337,
				3.0094518661499023
			],
			"min":[
				0.004228994250297546,
				0.5432649850845337,
				-2.846869468688965
			],
			"type":"VEC3"
		},
		{
			"bufferView":10,
			"componentType":5126,
			"count":45,
			"type":"VEC3"
		},
		{
			"bufferView":11,
			"componentType":5126,
			"count":45,
			"type":"VEC2"
		},
		{
			"bufferView":12,
			"componentType":5121,
			"count":45,
			"type":"VEC4"
		},
		{
			"bufferView":13,
			"componentType":5126,
			"count":45,
			"type":"VEC4"
		},
		{
			"bufferView":14,
			"componentType":5123,
			"count":192,
			"type":"SCALAR"
		},
		{
			"bufferView":15,
			"componentType":5126,
			"count":45,
			"max":[
				0.0016679763793945312,
				0,
				0
			],
			"min":[
				0.0016678571701049805,
				0,
				0
			],
			"type":"VEC3"
		},
		{
			"componentType":5126,
			"count":45,
			"sparse":{
				"count":1,
				"indices":{
					"bufferView":16,
					"componentType":5121
				},
				"values":{
					"bufferView":17
				}
			},
			"type":"VEC3"
		},
		{
			"bufferView":18,
			"componentType":5126,
			"count":20,
			"type":"MAT4"
		},
		{
			"bufferView":19,
			"componentType":5126,
			"count":685,
			"max":[
				3.738354206085205,
				0.8261457085609436,
				3.0094518661499023
			],
			"min":[
				0.004228994250297546,
				0.5432649850845337,
				-2.846869468688965
			],
			"type":"VEC3"
		},
		{
			"bufferView":20,
			"componentType":5126,
			"count":685,
			"type":"VEC3"
		},
		{
			"bufferView":21,
			"componentType":5126,
			"count":685,
			"type":"VEC2"
		},
		{
			"bufferView":22,
			"componentType":5121,
			"count":685,
			"type":"VEC4"
		},
		{
			"bufferView":23,
			"componentType":5126,
			"count":685,
			"type":"VEC4"
		},
		{
			"bufferView":24,
			"componentType":5126,
			"count":685,
			"max":[
				0.2875928282737732,
				0,
				0
			],
			"min":[
				0.0016678571701049805,
				0,
				0
			],
			"type":"VEC3"
		},
		{
			"componentType":5126,
			"count":685,
			"sparse":{
				"count":100,
				"indices":{
					"bufferView":25,
					"componentType":5123
				},
				"values":{
					"bufferView":26
				}
			},
			"type":"VEC3"
		},
		{
			"bufferView":27,
			"componentType":5126,
			"count":45,
			"max":[
				3.731271266937256,
				0.5432649850845337,
				3.0094518661499023
			],
			"min":[
				0.004228994250297546,
				0.5432649850845337,
				-2.846869468688965
			],
			"type":"VEC3"
		},
		{
			"bufferView":28,
			"componentType":5126,
			"count":45,
			"type":"VEC3"
		},
		{
			"bufferView":29,
			"componentType":5126,
			"count":45,
			"type":"VEC2"
		},
		{
			"bufferView":30,
			"componentType":5121,
			"count":45,
			"type":"VEC4"
		},
		{
			"bufferView":31,
			"componentType":5126,
			"count":45,
			"type":"VEC4"
		},
		{
			"bufferView":32,
			"componentType":5126,
			"count":45,
			"max":[
				0.0016679763793945312,
				0,
				0
			],
			"min":[
				0.0016678571701049805,
				0,
				0
			],
			"type":"VEC3"
		},
		{
			"componentType":5126,
			"count":45,
			"sparse":{
				"count":1,
				"indices":{
					"bufferView":33,
					"componentType":5121
				},
				"values":{
					"bufferView":34
				}
			},
			"type":"VEC3"
		},
		{
			"bufferView":35,
			"componentType":5126,
			"count":18,
			"max":[
				-0.0021727830171585083,
				0.971910834312439,
				3.118931293487549
			],
			"min":[
				-0.11452719569206238,
				0.005348324775695801,
				-2.898042917251587
			],
			"type":"VEC3"
		},
		{
			"bufferView":36,
			"componentType":5126,
			"count":18,
			"type":"VEC3"
		},
		{
			"bufferView":37,
			"componentType":5126,
			"count":18,
			"type":"VEC2"
		},
		{
			"bufferView":38,
			"componentType":5126,
			"count":18,
			"type":"VEC2"
		},
		{
			"bufferView":39,
			"componentType":5121,
			"count":18,
			"type":"VEC4"
		},
		{
			"bufferView":40,
			"componentType":5126,
			"count":18,
			"type":"VEC4"
		},
		{
			"bufferView":41,
			"componentType":5123,
			"count":48,
			"type":"SCALAR"
		},
		{
			"bufferView":42,
			"componentType":5126,
			"count":90,
			"max":[
				3.757866144180298,
				0.971910834312439,
				3.118931293487549
			],
			"min":[
				-0.11452719569206238,
				0.00489276647567749,
				-2.9011385440826416
			],
			"type":"VEC3"
		},
		{
			"bufferView":43,
			"componentType":5126,
			"count":90,
			"type":"VEC3"
		},
		{
			"bufferView":44,
			"componentType":5126,
			"count":90,
			"type":"VEC2"
		},
		{
			"bufferView":45,
			"componentType":5126,
			"count":90,
			"type":"VEC2"
		},
		{
			"bufferView":46,
			"componentType":5121,
			"count":90,
			"type":"VEC4"
		},
		{
			"bufferView":47,
			"componentType":5126,
			"count":90,
			"type":"VEC4"
		},
		{
			"bufferView":48,
			"componentType":5123,
			"count":192,
			"type":"SCALAR"
		},
		{
			"bufferView":49,
			"componentType":5126,
			"count":8,
			"max":[
				3.757866144180298,
				0.971910834312439,
				3.1189303398132324
			],
			"min":[
				-0.002173095941543579,
				0.00489276647567749,
				-2.899312734603882
			],
			"type":"VEC3"
		},
		{
			"bufferView":50,
			"componentType":5126,
			"count":8,
			"type":"VEC3"
		},
		{
			"bufferView":51,
			"componentType":5126,
			"count":8,
			"type":"VEC2"
		},
		{
			"bufferView":52,
			"componentType":5126,
			"count":8,
			"type":"VEC2"
		},
		{
			"bufferView":53,
			"componentType":5121,
			"count":8,
			"type":"VEC4"
		},
		{
			"bufferView":54,
			"componentType":5126,
			"count":8,
			"type":"VEC4"
		},
		{
			"bufferView":55,
			"componentType":5123,
			"count":12,
			"type":"SCALAR"
		},
		{
			"bufferView":56,
			"componentType":5126,
			"count":2,
			"max":[
				1.6666666666666667
			],
			"min":[
				0
			],
			"type":"SCALAR"
		},
		{
			"bufferView":57,
			"componentType":5126,
			"count":2,
			"type":"VEC3"
		},
		{
			"bufferView":58,
			"componentType":5126,
			"count":2,
			"type":"VEC4"
		},
		{
			"bufferView":59,
			"componentType":5126,
			"count":2,
			"type":"VEC3"
		},
		{
			"bufferView":60,
			"componentType":5126,
			"count":2,
			"type":"VEC3"
		},
		{
			"bufferView":61,
			"componentType":5126,
			"count":41,
			"max":[
				1.6666666666666667
			],
			"min":[
				0
			],
			"type":"SCALAR"
		},
		{
			"bufferView":62,
			"componentType":5126,
			"count":41,
			"type":"VEC4"
		},
		{
			"bufferView":63,
			"componentType":5126,
			"count":2,
			"type":"VEC3"
		},
		{
			"bufferView":64,
			"componentType":5126,
			"count":2,
			"type":"VEC3"
		},
		{
			"bufferView":65,
			"componentType":5126,
			"count":41,
			"type":"VEC4"
		},
		{
			"bufferView":66,
			"componentType":5126,
			"count":2,
			"type":"VEC3"
		},
		{
			"bufferView":67,
			"componentType":5126,
			"count":41,
			"type":"VEC3"
		},
		{
			"bufferView":68,
			"componentType":5126,
			"count":41,
			"type":"VEC4"
		},
		{
			"bufferView":69,
			"componentType":5126,
			"count":41,
			"type":"VEC3"
		},
		{
			"bufferView":70,
			"componentType":5126,
			"count":2,
			"type":"VEC3"
		},
		{
			"bufferView":71,
			"componentType":5126,
			"count":41,
			"type":"VEC4"
		},
		{
			"bufferView":72,
			"componentType":5126,
			"count":2,
			"type":"VEC3"
		},
		{
			"bufferView":73,
			"componentType":5126,
			"count":2,
			"type":"VEC3"
		},
		{
			"bufferView":74,
			"componentType":5126,
			"count":41,
			"type":"VEC4"
		},
		{
			"bufferView":75,
			"componentType":5126,
			"count":2,
			"type":"VEC3"
		},
		{
			"bufferView":76,
			"componentType":5126,
			"count":2,
			"type":"VEC3"
		},
		{
			"bufferView":77,
			"componentType":5126,
			"count":41,
			"type":"VEC4"
		},
		{
			"bufferView":78,
			"componentType":5126,
			"count":2,
			"type":"VEC3"
		},
		{
			"bufferView":79,
			"componentType":5126,
			"count":2,
			"type":"VEC3"
		},
		{
			"bufferView":80,
			"componentType":5126,
			"count":41,
			"type":"VEC4"
		},
		{
			"bufferView":81,
			"componentType":5126,
			"count":2,
			"type":"VEC3"
		},
		{
			"bufferView":82,
			"componentType":5126,
			"count":2,
			"type":"VEC3"
		},
		{
			"bufferView":83,
			"componentType":5126,
			"count":41,
			"type":"VEC4"
		},
		{
			"bufferView":84,
			"componentType":5126,
			"count":2,
			"type":"VEC3"
		},
		{
			"bufferView":85,
			"componentType":5126,
			"count":2,
			"type":"VEC3"
		},
		{
			"bufferView":86,
			"componentType":5126,
			"count":41,
			"type":"VEC4"
		},
		{
			"bufferView":87,
			"componentType":5126,
			"count":2,
			"type":"VEC3"
		},
		{
			"bufferView":88,
			"componentType":5126,
			"count":2,
			"type":"VEC3"
		},
		{
			"bufferView":89,
			"componentType":5126,
			"count":41,
			"type":"VEC4"
		},
		{
			"bufferView":90,
			"componentType":5126,
			"count":2,
			"type":"VEC3"
		},
		{
			"bufferView":91,
			"componentType":5126,
			"count":41,
			"type":"VEC3"
		},
		{
			"bufferView":92,
			"componentType":5126,
			"count":41,
			"type":"VEC4"
		},
		{
			"bufferView":93,
			"componentType":5126,
			"count":2,
			"type":"VEC3"
		},
		{
			"bufferView":94,
			"componentType":5126,
			"count":2,
			"type":"VEC3"
		},
		{
			"bufferView":95,
			"componentType":5126,
			"count":41,
			"type":"VEC4"
		},
		{
			"bufferView":96,
			"componentType":5126,
			"count":2,
			"type":"VEC3"
		},
		{
			"bufferView":97,
			"componentType":5126,
			"count":2,
			"type":"VEC3"
		},
		{
			"bufferView":98,
			"componentType":5126,
			"count":41,
			"type":"VEC4"
		},
		{
			"bufferView":99,
			"componentType":5126,
			"count":2,
			"type":"VEC3"
		},
		{
			"bufferView":100,
			"componentType":5126,
			"count":2,
			"type":"VEC3"
		},
		{
			"bufferView":101,
			"componentType":5126,
			"count":41,
			"type":"VEC4"
		},
		{
			"bufferView":102,
			"componentType":5126,
			"count":2,
			"type":"VEC3"
		},
		{
			"bufferView":103,
			"componentType":5126,
			"count":2,
			"type":"VEC3"
		},
		{
			"bufferView":104,
			"componentType":5126,
			"count":41,
			"type":"VEC4"
		},
		{
			"bufferView":105,
			"componentType":5126,
			"count":2,
			"type":"VEC3"
		},
		{
			"bufferView":106,
			"componentType":5126,
			"count":2,
			"type":"VEC3"
		},
		{
			"bufferView":107,
			"componentType":5126,
			"count":41,
			"type":"VEC4"
		},
		{
			"bufferView":108,
			"componentType":5126,
			"count":2,
			"type":"VEC3"
		},
		{
			"bufferView":109,
			"componentType":5126,
			"count":2,
			"type":"VEC3"
		},
		{
			"bufferView":110,
			"componentType":5126,
			"count":41,
			"type":"VEC4"
		},
		{
			"bufferView":111,
			"componentType":5126,
			"count":2,
			"type":"VEC3"
		},
		{
			"bufferView":112,
			"componentType":5126,
			"count":2,
			"type":"VEC3"
		},
		{
			"bufferView":113,
			"componentType":5126,
			"count":41,
			"type":"VEC4"
		},
		{
			"bufferView":114,
			"componentType":5126,
			"count":2,
			"type":"VEC3"
		},
		{
			"bufferView":115,
			"componentType":5126,
			"count":2,
			"type":"VEC3"
		},
		{
			"bufferView":116,
			"componentType":5126,
			"count":2,
			"type":"VEC4"
		},
		{
			"bufferView":117,
			"componentType":5126,
			"count":2,
			"type":"VEC3"
		},
		{
			"bufferView":118,
			"componentType":5126,
			"count":4,
			"max":[
				0.8333333333333334
			],
			"min":[
				0.7083333333333334
			],
			"type":"SCALAR"
		},
		{
			"bufferView":119,
			"componentType":5126,
			"count":4,
			"type":"SCALAR"
		},
		{
			"bufferView":120,
			"componentType":5126,
			"count":19,
			"max":[
				1.4583333333333333
			],
			"min":[
				0.7083333333333334
			],
			"type":"SCALAR"
		},
		{
			"bufferView":121,
			"componentType":5126,
			"count":19,
			"type":"SCALAR"
		}
	],
	"bufferViews":[
		{
			"buffer":0,
			"byteLength":8220,
			"byteOffset":0,
			"target":34962
		},
		{
			"buffer":0,
			"byteLength":8220,
			"byteOffset":8220,
			"target":34962
		},
		{
			"buffer":0,
			"byteLength":5480,
			"byteOffset":16440,
			"target":34962
		},
		{
			"buffer":0,
			"byteLength":2740,
			"byteOffset":21920,
			"target":34962
		},
		{
			"buffer":0,
			"byteLength":10960,
			"byteOffset":24660,
			"target":34962
		},
		{
			"buffer":0,
			"byteLength":4896,
			"byteOffset":35620,
			"target":34963
		},
		{
			"buffer":0,
			"byteLength":8220,
			"byteOffset":40516,
			"target":34962
		},
		{
			"buffer":0,
			"byteLength":200,
			"byteOffset":48736
		},
		{
			"buffer":0,
			"byteLength":1200,
			"byteOffset":48936
		},
		{
			"buffer":0,
			"byteLength":540,
			"byteOffset":50136,
			"target":34962
		},
		{
			"buffer":0,
			"byteLength":540,
			"byteOffset":50676,
			"target":34962
		},
		{
			"buffer":0,
			"byteLength":360,
			"byteOffset":51216,
			"target":34962
		},
		{
			"buffer":0,
			"byteLength":180,
			"byteOffset":51576,
			"target":34962
		},
		{
			"buffer":0,
			"byteLength":720,
			"byteOffset":51756,
			"target":34962
		},
		{
			"buffer":0,
			"byteLength":384,
			"byteOffset":52476,
			"target":34963
		},
		{
			"buffer":0,
			"byteLength":540,
			"byteOffset":52860,
			"target":34962
		},
		{
			"buffer":0,
			"byteLength":1,
			"byteOffset":53400
		},
		{
			"buffer":0,
			"byteLength":12,
			"byteOffset":53404
		},
		{
			"buffer":0,
			"byteLength":1280,
			"byteOffset":53416
		},
		{
			"buffer":0,
			"byteLength":8220,
			"byteOffset":54696,
			"target":34962
		},
		{
			"buffer":0,
			"byteLength":8220,
			"byteOffset":62916,
			"target":34962
		},
		{
			"buffer":0,
			"byteLength":5480,
			"byteOffset":71136,
			"target":34962
		},
		{
			"buffer":0,
			"byteLength":2740,
			"byteOffset":76616,
			"target":34962
		},
		{
			"buffer":0,
			"byteLength":10960,
			"byteOffset":79356,
			"target":34962
		},
		{
			"buffer":0,
			"byteLength":8220,
			"byteOffset":90316,
			"target":34962
		},
		{
			"buffer":0,
			"byteLength":200,
			"byteOffset":98536
		},
		{
			"buffer":0,
			"byteLength":1200,
			"byteOffset":98736
		},
		{
			"buffer":0,
			"byteLength":540,
			"byteOffset":99936,
			"target":34962
		},
		{
			"buffer":0,
			"byteLength":540,
			"byteOffset":100476,
			"target":34962
		},
		{
			"buffer":0,
			"byteLength":360,
			"byteOffset":101016,
			"target":34962
		},
		{
			"buffer":0,
			"byteLength":180,
			"byteOffset":101376,
			"target":34962
		},
		{
			"buffer":0,
			"byteLength":720,
			"byteOffset":101556,
			"target":34962
		},
		{
			"buffer":0,
			"byteLength":540,
			"byteOffset":102276,
			"target":34962
		},
		{
			"buffer":0,
			"byteLength":1,
			"byteOffset":102816
		},
		{
			"buffer":0,
			"byteLength":12,
			"byteOffset":102820
		},
		{
			"buffer":0,
			"byteLength":216,
			"byteOffset":102832,
			"target":34962
		},
		{
			"buffer":0,
			"byteLength":216,
			"byteOffset":103048,
			"target":34962
		},
		{
			"buffer":0,
			"byteLength":144,
			"byteOffset":103264,
			"target":34962
		},
		{
			"buffer":0,
			"byteLength":144,
			"byteOffset":103408,
			"target":34962
		},
		{
			"buffer":0,
			"byteLength":72,
			"byteOffset":103552,
			"target":34962
		},
		{
			"buffer":0,
			"byteLength":288,
			"byteOffset":103624,
			"target":34962
		},
		{
			"buffer":0,
			"byteLength":96,
			"byteOffset":103912,
			"target":34963
		},
		{
			"buffer":0,
			"byteLength":1080,
			"byteOffset":104008,
			"target":34962
		},
		{
			"buffer":0,
			"byteLength":1080,
			"byteOffset":105088,
			"target":34962
		},
		{
			"buffer":0,
			"byteLength":720,
			"byteOffset":106168,
			"target":34962
		},
		{
			"buffer":0,
			"byteLength":720,
			"byteOffset":106888,
			"target":34962
		},
		{
			"buffer":0,
			"byteLength":360,
			"byteOffset":107608,
			"target":34962
		},
		{
			"buffer":0,
			"byteLength":1440,
			"byteOffset":107968,
			"target":34962
		},
		{
			"buffer":0,
			"byteLength":384,
			"byteOffset":109408,
			"target":34963
		},
		{
			"buffer":0,
			"byteLength":96,
			"byteOffset":109792,
			"target":34962
		},
		{
			"buffer":0,
			"byteLength":96,
			"byteOffset":109888,
			"target":34962
		},
		{
			"buffer":0,
			"byteLength":64,
			"byteOffset":109984,
			"target":34962
		},
		{
			"buffer":0,
			"byteLength":64,
			"byteOffset":110048,
			"target":34962
		},
		{
			"buffer":0,
			"byteLength":32,
			"byteOffset":110112,
			"target":34962
		},
		{
			"buffer":0,
			"byteLength":128,
			"byteOffset":110144,
			"target":34962
		},
		{
			"buffer":0,
			"byteLength":24,
			"byteOffset":110272,
			"target":34963
		},
		{
			"buffer":0,
			"byteLength":8,
			"byteOffset":110296
		},
		{
			"buffer":0,
			"byteLength":24,
			"byteOffset":110304
		},
		{
			"buffer":0,
			"byteLength":32,
			"byteOffset":110328
		},
		{
			"buffer":0,
			"byteLength":24,
			"byteOffset":110360
		},
		{
			"buffer":0,
			"byteLength":24,
			"byteOffset":110384
		},
		{
			"buffer":0,
			"byteLength":164,
			"byteOffset":110408
		},
		{
			"buffer":0,
			"byteLength":656,
			"byteOffset":110572
		},
		{
			"buffer":0,
			"byteLength":24,
			"byteOffset":111228
		},
		{
			"buffer":0,
			"byteLength":24,
			"byteOffset":111252
		},
		{
			"buffer":0,
			"byteLength":656,
			"byteOffset":111276
		},
		{
			"buffer":0,
			"byteLength":24,
			"byteOffset":111932
		},
		{
			"buffer":0,
			"byteLength":492,
			"byteOffset":111956
		},
		{
			"buffer":0,
			"byteLength":656,
			"byteOffset":112448
		},
		{
			"buffer":0,
			"byteLength":492,
			"byteOffset":113104
		},
		{
			"buffer":0,
			"byteLength":24,
			"byteOffset":113596
		},
		{
			"buffer":0,
			"byteLength":656,
			"byteOffset":113620
		},
		{
			"buffer":0,
			"byteLength":24,
			"byteOffset":114276
		},
		{
			"buffer":0,
			"byteLength":24,
			"byteOffset":114300
		},
		{
			"buffer":0,
			"byteLength":656,
			"byteOffset":114324
		},
		{
			"buffer":0,
			"byteLength":24,
			"byteOffset":114980
		},
		{
			"buffer":0,
			"byteLength":24,
			"byteOffset":115004
		},
		{
			"buffer":0,
			"byteLength":656,
			"byteOffset":115028
		},
		{
			"buffer":0,
			"byteLength":24,
			"byteOffset":115684
		},
		{
			"buffer":0,
			"byteLength":24,
			"byteOffset":115708
		},
		{
			"buffer":0,
			"byteLength":656,
			"byteOffset":115732
		},
		{
			"buffer":0,
			"byteLength":24,
			"byteOffset":116388
		},
		{
			"buffer":0,
			"byteLength":24,
			"byteOffset":116412
		},
		{
			"buffer":0,
			"byteLength":656,
			"byteOffset":116436
		},
		{
			"buffer":0,
			"byteLength":24,
			"byteOffset":117092
		},
		{
			"buffer":0,
			"byteLength":24,
			"byteOffset":117116
		},
		{
			"buffer":0,
			"byteLength":656,
			"byteOffset":117140
		},
		{
			"buffer":0,
			"byteLength":24,
			"byteOffset":117796
		},
		{
			"buffer":0,
			"byteLength":24,
			"byteOffset":117820
		},
		{
			"buffer":0,
			"byteLength":656,
			"byteOffset":117844
		},
		{
			"buffer":0,
			"byteLength":24,
			"byteOffset":118500
		},
		{
			"buffer":0,
			"byteLength":492,
			"byteOffset":118524
		},
		{
			"buffer":0,
			"byteLength":656,
			"byteOffset":119016
		},
		{
			"buffer":0,
			"byteLength":24,
			"byteOffset":119672
		},
		{
			"buffer":0,
			"byteLength":24,
			"byteOffset":119696
		},
		{
			"buffer":0,
			"byteLength":656,
			"byteOffset":119720
		},
		{
			"buffer":0,
			"byteLength":24,
			"byteOffset":120376
		},
		{
			"buffer":0,
			"byteLength":24,
			"byteOffset":120400
		},
		{
			"buffer":0,
			"byteLength":656,
			"byteOffset":120424
		},
		{
			"buffer":0,
			"byteLength":24,
			"byteOffset":121080
		},
		{
			"buffer":0,
			"byteLength":24,
			"byteOffset":121104
		},
		{
			"buffer":0,
			"byteLength":656,
			"byteOffset":121128
		},
		{
			"buffer":0,
			"byteLength":24,
			"byteOffset":121784
		},
		{
			"buffer":0,
			"byteLength":24,
			"byteOffset":121808
		},
		{
			"buffer":0,
			"byteLength":656,
			"byteOffset":121832
		},
		{
			"buffer":0,
			"byteLength":24,
			"byteOffset":122488
		},
		{
			"buffer":0,
			"byteLength":24,
			"byteOffset":122512
		},
		{
			"buffer":0,
			"byteLength":656,
			"byteOffset":122536
		},
		{
			"buffer":0,
			"byteLength":24,
			"byteOffset":123192
		},
		{
			"buffer":0,
			"byteLength":24,
			"byteOffset":123216
		},
		{
			"buffer":0,
			"byteLength":656,
			"byteOffset":123240
		},
		{
			"buffer":0,
			"byteLength":24,
			"byteOffset":123896
		},
		{
			"buffer":0,
			"byteLength":24,
			"byteOffset":123920
		},
		{
			"buffer":0,
			"byteLength":656,
			"byteOffset":123944
		},
		{
			"buffer":0,
			"byteLength":24,
			"byteOffset":124600
		},
		{
			"buffer":0,
			"byteLength":24,
			"byteOffset":124624
		},
		{
			"buffer":0,
			"byteLength":32,
			"byteOffset":124648
		},
		{
			"buffer":0,
			"byteLength":24,
			"byteOffset":124680
		},
		{
			"buffer":0,
			"byteLength":16,
			"byteOffset":124704
		},
		{
			"buffer":0,
			"byteLength":16,
			"byteOffset":124720
		},
		{
			"buffer":0,
			"byteLength":76,
			"byteOffset":124736
		},
		{
			"buffer":0,
			"byteLength":76,
			"byteOffset":124812
		}
	],
	"samplers":[
		{
			"magFilter":9729,
			"minFilter":9987
		}
	],
	"buffers":[
		{
			"byteLength":124888,
			"uri":"book2.bin"
		}
	]
}
