{
	"asset":{
		"generator":"Khronos glTF Blender I/O v4.1.62",
		"version":"2.0"
	},
	"extensionsUsed":[
		"KHR_materials_specular",
		"KHR_materials_ior",
		"KHR_texture_transform"
	],
	"extensionsRequired":[
		"KHR_texture_transform"
	],
	"scene":0,
	"scenes":[
		{
			"name":"Scene",
			"nodes":[
				0,
				3,
				4,
				6,
				7,
				8,
				11
			]
		}
	],
	"nodes":[
		{
			"mesh":0,
			"name":"PENGUIN",
			"scale":[
				1,
				1,
				0.25765472650527954
			],
			"translation":[
				0,
				0,
				0.3321636915206909
			]
		},
		{
			"mesh":1,
			"name":"LampEmmisive",
			"rotation":[
				-1,
				0,
				0,
				2.5976640927183325e-07
			],
			"scale":[
				-0.03949104622006416,
				-0.2728886008262634,
				-0.9791383743286133
			],
			"translation":[
				0.7652314901351929,
				-7.85404634475708,
				33.61216735839844
			]
		},
		{
			"mesh":2,
			"name":"LampGold",
			"rotation":[
				-1,
				0,
				0,
				2.5976640927183325e-07
			],
			"scale":[
				-0.03949104622006416,
				-0.2728886008262634,
				-0.9791383743286133
			],
			"translation":[
				1.3064020872116089,
				-7.85404634475708,
				33.61216735839844
			]
		},
		{
			"children":[
				1,
				2
			],
			"mesh":3,
			"name":"LampPlate",
			"scale":[
				5.989394187927246,
				0.8667547106742859,
				0.2415669709444046
			],
			"translation":[
				0.09274747222661972,
				2.2600691318511963,
				0.20583190023899078
			]
		},
		{
			"mesh":4,
			"name":"Penguin",
			"rotation":[
				0.7071067690849304,
				0,
				0,
				0.7071068286895752
			],
			"scale":[
				2.8730900287628174,
				2.8730900287628174,
				2.8730900287628174
			],
			"translation":[
				5.56419563293457,
				-22.170339584350586,
				-2.266571283340454
			]
		},
		{
			"mesh":5,
			"name":"TicketPaper",
			"rotation":[
				0.7071065902709961,
				0,
				0,
				0.7071070671081543
			],
			"scale":[
				5.662151336669922,
				151.3079071044922,
				7.120128631591797
			],
			"translation":[
				0,
				0,
				1.0574874877929688
			]
		},
		{
			"children":[
				5
			],
			"mesh":6,
			"name":"Ticket",
			"rotation":[
				-0.08817742764949799,
				0,
				0,
				0.9961047768592834
			],
			"scale":[
				2.9659454822540283,
				2.358613967895508,
				0.11098981648683548
			],
			"translation":[
				-4.782042026519775,
				-22.674129486083984,
				-2.4557838439941406
			]
		},
		{
			"mesh":7,
			"name":"WallLamp",
			"scale":[
				0.18680594861507416,
				1.4979966878890991,
				0.18680594861507416
			],
			"translation":[
				9.600990295410156,
				-11.893143653869629,
				2.1373660564422607
			]
		},
		{
			"mesh":8,
			"name":"Candle",
			"rotation":[
				0,
				-0.7071068286895752,
				0,
				0.7071068286895752
			],
			"scale":[
				1.4886549711227417,
				2.004383087158203,
				1.4886549711227417
			],
			"translation":[
				1.090250015258789,
				-22.217899322509766,
				-2.647209882736206
			]
		},
		{
			"mesh":9,
			"name":"Wallback",
			"rotation":[
				0.7071068286895752,
				0,
				0,
				0.7071068286895752
			],
			"scale":[
				70.65948486328125,
				11.933600425720215,
				3.4370033740997314
			],
			"translation":[
				1.720055341720581,
				-2.2881457805633545,
				0.12700000405311584
			]
		},
		{
			"mesh":10,
			"name":"Wallwood",
			"rotation":[
				0.7071068286895752,
				0,
				0,
				0.7071068286895752
			],
			"scale":[
				70.65948486328125,
				11.933600425720215,
				3.4370033740997314
			],
			"translation":[
				1.720055341720581,
				-2.2881457805633545,
				0.12700000405311584
			]
		},
		{
			"children":[
				9,
				10
			],
			"name":"Wall"
		}
	],
	"materials":[
		{
			"doubleSided":true,
			"name":"GoldMat",
			"pbrMetallicRoughness":{
				"baseColorFactor":[
					0.5,
					0.3779819905757904,
					0.14749999344348907,
					1
				],
				"roughnessFactor":0.29104849696159363
			}
		},
		{
			"doubleSided":true,
			"name":"LampEmissiveMat",
			"pbrMetallicRoughness":{
				"metallicFactor":0,
				"roughnessFactor":0.6000000238418579
			}
		},
		{
			"doubleSided":true,
			"name":"PenguinMat",
			"pbrMetallicRoughness":{
				"baseColorTexture":{
					"index":0
				},
				"metallicFactor":0.19983914494514465,
				"roughnessFactor":0
			}
		},
		{
			"doubleSided":true,
			"name":"TicketMat",
			"pbrMetallicRoughness":{
				"baseColorTexture":{
					"index":1
				},
				"metallicFactor":0.10000000149011612,
				"roughnessFactor":0.30000001192092896
			}
		},
		{
			"doubleSided":true,
			"name":"TicketFrameMat",
			"pbrMetallicRoughness":{
				"baseColorFactor":[
					0.650090754032135,
					0.5370081663131714,
					0.42670899629592896,
					1
				],
				"metallicFactor":0,
				"roughnessFactor":0
			}
		},
		{
			"doubleSided":true,
			"name":"PageMat",
			"pbrMetallicRoughness":{
				"baseColorFactor":[
					0.8227809071540833,
					0.6653880476951599,
					0.4910210371017456,
					1
				],
				"metallicFactor":0,
				"roughnessFactor":0.5
			}
		},
		{
			"alphaMode":"BLEND",
			"doubleSided":true,
			"name":"WallLampWhite",
			"pbrMetallicRoughness":{
				"baseColorFactor":[
					0.800000011920929,
					0.800000011920929,
					0.800000011920929,
					0.800000011920929
				],
				"metallicFactor":0.30000001192092896,
				"roughnessFactor":0.800000011920929
			}
		},
		{
			"doubleSided":true,
			"name":"CandleInnerMat",
			"pbrMetallicRoughness":{
				"baseColorFactor":[
					0.800000011920929,
					0.800000011920929,
					0.800000011920929,
					1
				],
				"metallicFactor":0,
				"roughnessFactor":0.5
			}
		},
		{
			"doubleSided":true,
			"name":"CandleMat",
			"pbrMetallicRoughness":{
				"baseColorTexture":{
					"index":2
				},
				"metallicFactor":0.6000000238418579,
				"roughnessFactor":0.5
			}
		},
		{
			"doubleSided":true,
			"name":"CandleBlackMat",
			"pbrMetallicRoughness":{
				"baseColorFactor":[
					0.016034061089158058,
					0.016034061089158058,
					0.016034061089158058,
					1
				],
				"metallicFactor":0,
				"roughnessFactor":0.5
			}
		},
		{
			"doubleSided":true,
			"name":"WallMat",
			"normalTexture":{
				"index":3,
				"scale":3
			},
			"pbrMetallicRoughness":{
				"baseColorTexture":{
					"index":4
				},
				"metallicFactor":0.46136364340782166,
				"roughnessFactor":0.6818181872367859
			}
		},
		{
			"doubleSided":true,
			"extensions":{
				"KHR_materials_specular":{
					"specularFactor":0.6000000238418579
				},
				"KHR_materials_ior":{
					"ior":1.4500000476837158
				}
			},
			"name":"Woodmat",
			"normalTexture":{
				"extensions":{
					"KHR_texture_transform":{
						"offset":[
							-0.999999999999999,
							0.9000000422212738
						],
						"rotation":1.5707963705062866,
						"scale":[
							2,
							1
						]
					}
				},
				"index":5,
				"texCoord":1
			},
			"pbrMetallicRoughness":{
				"baseColorTexture":{
					"extensions":{
						"KHR_texture_transform":{
							"offset":[
								-0.999999999999999,
								0.9000000422212738
							],
							"rotation":1.5707963705062866,
							"scale":[
								2,
								1
							]
						}
					},
					"index":6,
					"texCoord":1
				},
				"metallicFactor":0,
				"roughnessFactor":0
			}
		}
	],
	"meshes":[
		{
			"name":"Curve.001",
			"primitives":[
				{
					"attributes":{
						"POSITION":0,
						"NORMAL":1,
						"TEXCOORD_0":2,
						"TEXCOORD_1":3
					},
					"indices":4,
					"material":0
				}
			]
		},
		{
			"name":"LampEmmisive",
			"primitives":[
				{
					"attributes":{
						"POSITION":5,
						"NORMAL":6,
						"TEXCOORD_0":7
					},
					"indices":8,
					"material":1
				}
			]
		},
		{
			"name":"LampGold",
			"primitives":[
				{
					"attributes":{
						"POSITION":9,
						"NORMAL":10,
						"TEXCOORD_0":11
					},
					"indices":12,
					"material":0
				}
			]
		},
		{
			"name":"LampPlate",
			"primitives":[
				{
					"attributes":{
						"POSITION":13,
						"NORMAL":14,
						"TEXCOORD_0":15
					},
					"indices":16,
					"material":0
				}
			]
		},
		{
			"name":"Penguin",
			"primitives":[
				{
					"attributes":{
						"POSITION":17,
						"NORMAL":18,
						"TEXCOORD_0":19
					},
					"indices":20,
					"material":2
				}
			]
		},
		{
			"name":"TicketPaper",
			"primitives":[
				{
					"attributes":{
						"POSITION":21,
						"NORMAL":22,
						"TEXCOORD_0":23
					},
					"indices":24,
					"material":3
				}
			]
		},
		{
			"name":"TicketFrame",
			"primitives":[
				{
					"attributes":{
						"POSITION":25,
						"NORMAL":26,
						"TEXCOORD_0":27
					},
					"indices":28,
					"material":4
				},
				{
					"attributes":{
						"POSITION":29,
						"NORMAL":30,
						"TEXCOORD_0":31
					},
					"indices":32,
					"material":0
				},
				{
					"attributes":{
						"POSITION":33,
						"NORMAL":34,
						"TEXCOORD_0":35
					},
					"indices":36,
					"material":5
				}
			]
		},
		{
			"name":"WallLamp",
			"primitives":[
				{
					"attributes":{
						"POSITION":37,
						"NORMAL":38,
						"TEXCOORD_0":39
					},
					"indices":40,
					"material":0
				},
				{
					"attributes":{
						"POSITION":41,
						"NORMAL":42,
						"TEXCOORD_0":43
					},
					"indices":44,
					"material":6
				}
			]
		},
		{
			"name":"CandleMesh",
			"primitives":[
				{
					"attributes":{
						"POSITION":45,
						"NORMAL":46,
						"TEXCOORD_0":47
					},
					"indices":48,
					"material":7
				},
				{
					"attributes":{
						"POSITION":49,
						"NORMAL":50,
						"TEXCOORD_0":51
					},
					"indices":52,
					"material":8
				},
				{
					"attributes":{
						"POSITION":53,
						"NORMAL":54,
						"TEXCOORD_0":55
					},
					"indices":56,
					"material":9
				}
			]
		},
		{
			"name":"Wallback",
			"primitives":[
				{
					"attributes":{
						"POSITION":57,
						"NORMAL":58,
						"TEXCOORD_0":59,
						"TEXCOORD_1":60
					},
					"indices":61,
					"material":10
				}
			]
		},
		{
			"name":"Wallwood",
			"primitives":[
				{
					"attributes":{
						"POSITION":62,
						"NORMAL":63,
						"TEXCOORD_0":64,
						"TEXCOORD_1":65
					},
					"indices":66,
					"material":11
				}
			]
		}
	],
	"textures":[
		{
			"sampler":0,
			"source":0
		},
		{
			"sampler":0,
			"source":1
		},
		{
			"sampler":0,
			"source":2
		},
		{
			"sampler":0,
			"source":3
		},
		{
			"sampler":0,
			"source":4
		},
		{
			"sampler":0,
			"source":5
		},
		{
			"sampler":0,
			"source":6
		}
	],
	"images":[
		{
			"mimeType":"image/png",
			"name":"PenguinTex",
			"uri":"textures/PenguinTex.png"
		},
		{
			"mimeType":"image/png",
			"name":"ticketTex",
			"uri":"textures/ticketTex.png"
		},
		{
			"mimeType":"image/png",
			"name":"candleTexture",
			"uri":"textures/candleTexture.png"
		},
		{
			"mimeType":"image/jpeg",
			"name":"FabricNormal_2k",
			"uri":"textures/FabricNormal_2k.jpg"
		},
		{
			"mimeType":"image/png",
			"name":"wall0",
			"uri":"textures/wall0.png"
		},
		{
			"mimeType":"image/jpeg",
			"name":"Wood_Normal",
			"uri":"textures/Wood_Normal.jpg"
		},
		{
			"mimeType":"image/jpeg",
			"name":"Wood_BaseColor",
			"uri":"textures/Wood_BaseColor.jpg"
		}
	],
	"accessors":[
		{
			"bufferView":0,
			"componentType":5126,
			"count":5348,
			"max":[
				7.107769966125488,
				0.45796212553977966,
				0.793429970741272
			],
			"min":[
				-7.1083760261535645,
				-0.43577173352241516,
				0.47173887491226196
			],
			"type":"VEC3"
		},
		{
			"bufferView":1,
			"componentType":5126,
			"count":5348,
			"type":"VEC3"
		},
		{
			"bufferView":2,
			"componentType":5126,
			"count":5348,
			"type":"VEC2"
		},
		{
			"bufferView":3,
			"componentType":5126,
			"count":5348,
			"type":"VEC2"
		},
		{
			"bufferView":4,
			"componentType":5123,
			"count":11016,
			"type":"SCALAR"
		},
		{
			"bufferView":5,
			"componentType":5126,
			"count":12,
			"max":[
				49.867774963378906,
				24.67122459411621,
				-1.7156707048416138
			],
			"min":[
				-10.700897216796875,
				24.151498794555664,
				-3.8846232891082764
			],
			"type":"VEC3"
		},
		{
			"bufferView":6,
			"componentType":5126,
			"count":12,
			"type":"VEC3"
		},
		{
			"bufferView":7,
			"componentType":5126,
			"count":12,
			"type":"VEC2"
		},
		{
			"bufferView":8,
			"componentType":5123,
			"count":24,
			"type":"SCALAR"
		},
		{
			"bufferView":9,
			"componentType":5126,
			"count":3532,
			"max":[
				66.16193389892578,
				42.76225662231445,
				4.223090854793554e-07
			],
			"min":[
				0,
				24.04973602294922,
				-34.584110260009766
			],
			"type":"VEC3"
		},
		{
			"bufferView":10,
			"componentType":5126,
			"count":3532,
			"type":"VEC3"
		},
		{
			"bufferView":11,
			"componentType":5126,
			"count":3532,
			"type":"VEC2"
		},
		{
			"bufferView":12,
			"componentType":5123,
			"count":6864,
			"type":"SCALAR"
		},
		{
			"bufferView":13,
			"componentType":5126,
			"count":80,
			"max":[
				1,
				1,
				1.2581071853637695
			],
			"min":[
				-1,
				-1,
				-1
			],
			"type":"VEC3"
		},
		{
			"bufferView":14,
			"componentType":5126,
			"count":80,
			"type":"VEC3"
		},
		{
			"bufferView":15,
			"componentType":5126,
			"count":80,
			"type":"VEC2"
		},
		{
			"bufferView":16,
			"componentType":5123,
			"count":132,
			"type":"SCALAR"
		},
		{
			"bufferView":17,
			"componentType":5126,
			"count":21918,
			"max":[
				0.6407610177993774,
				0.4344673156738281,
				0.9989100098609924
			],
			"min":[
				-0.6549310088157654,
				-0.4336250126361847,
				-0.9994829893112183
			],
			"type":"VEC3"
		},
		{
			"bufferView":18,
			"componentType":5126,
			"count":21918,
			"type":"VEC3"
		},
		{
			"bufferView":19,
			"componentType":5126,
			"count":21918,
			"type":"VEC2"
		},
		{
			"bufferView":20,
			"componentType":5123,
			"count":23994,
			"type":"SCALAR"
		},
		{
			"bufferView":21,
			"componentType":5126,
			"count":245,
			"max":[
				0.07387742400169373,
				0.004535121377557516,
				0.050742343068122864
			],
			"min":[
				-0.07387740910053253,
				0,
				-0.050742343068122864
			],
			"type":"VEC3"
		},
		{
			"bufferView":22,
			"componentType":5126,
			"count":245,
			"type":"VEC3"
		},
		{
			"bufferView":23,
			"componentType":5126,
			"count":245,
			"type":"VEC2"
		},
		{
			"bufferView":24,
			"componentType":5123,
			"count":468,
			"type":"SCALAR"
		},
		{
			"bufferView":25,
			"componentType":5126,
			"count":28,
			"max":[
				0.9246277213096619,
				0.9246277213096619,
				1.0000008344650269
			],
			"min":[
				-0.9246277213096619,
				-0.9246277213096619,
				-20.111881256103516
			],
			"type":"VEC3"
		},
		{
			"bufferView":26,
			"componentType":5126,
			"count":28,
			"type":"VEC3"
		},
		{
			"bufferView":27,
			"componentType":5126,
			"count":28,
			"type":"VEC2"
		},
		{
			"bufferView":28,
			"componentType":5123,
			"count":54,
			"type":"SCALAR"
		},
		{
			"bufferView":29,
			"componentType":5126,
			"count":72,
			"max":[
				1,
				1,
				3.228787660598755
			],
			"min":[
				-1,
				-1,
				-20.111881256103516
			],
			"type":"VEC3"
		},
		{
			"bufferView":30,
			"componentType":5126,
			"count":72,
			"type":"VEC3"
		},
		{
			"bufferView":31,
			"componentType":5126,
			"count":72,
			"type":"VEC2"
		},
		{
			"bufferView":32,
			"componentType":5123,
			"count":144,
			"type":"SCALAR"
		},
		{
			"bufferView":33,
			"componentType":5126,
			"count":4,
			"max":[
				0.6582947969436646,
				0.6654261946678162,
				0.1506946086883545
			],
			"min":[
				-0.6582947969436646,
				-0.6511631011962891,
				0.1506946086883545
			],
			"type":"VEC3"
		},
		{
			"bufferView":34,
			"componentType":5126,
			"count":4,
			"type":"VEC3"
		},
		{
			"bufferView":35,
			"componentType":5126,
			"count":4,
			"type":"VEC2"
		},
		{
			"bufferView":36,
			"componentType":5123,
			"count":6,
			"type":"SCALAR"
		},
		{
			"bufferView":37,
			"componentType":5126,
			"count":1426,
			"max":[
				9.196537971496582,
				2.7918474674224854,
				9.19654369354248
			],
			"min":[
				-111.98760986328125,
				-1.7193076610565186,
				-10.849894523620605
			],
			"type":"VEC3"
		},
		{
			"bufferView":38,
			"componentType":5126,
			"count":1426,
			"type":"VEC3"
		},
		{
			"bufferView":39,
			"componentType":5126,
			"count":1426,
			"type":"VEC2"
		},
		{
			"bufferView":40,
			"componentType":5123,
			"count":4080,
			"type":"SCALAR"
		},
		{
			"bufferView":41,
			"componentType":5126,
			"count":272,
			"max":[
				8.741667747497559,
				2.7011544704437256,
				8.716512680053711
			],
			"min":[
				-111.5327377319336,
				0.5792514681816101,
				-8.752097129821777
			],
			"type":"VEC3"
		},
		{
			"bufferView":42,
			"componentType":5126,
			"count":272,
			"type":"VEC3"
		},
		{
			"bufferView":43,
			"componentType":5126,
			"count":272,
			"type":"VEC2"
		},
		{
			"bufferView":44,
			"componentType":5123,
			"count":420,
			"type":"SCALAR"
		},
		{
			"bufferView":45,
			"componentType":5126,
			"count":96,
			"max":[
				0.8789982199668884,
				0.27469146251678467,
				0.8789978623390198
			],
			"min":[
				-0.8789986968040466,
				-1.2908616065979004,
				-0.8789990544319153
			],
			"type":"VEC3"
		},
		{
			"bufferView":46,
			"componentType":5126,
			"count":96,
			"type":"VEC3"
		},
		{
			"bufferView":47,
			"componentType":5126,
			"count":96,
			"type":"VEC2"
		},
		{
			"bufferView":48,
			"componentType":5123,
			"count":564,
			"type":"SCALAR"
		},
		{
			"bufferView":49,
			"componentType":5126,
			"count":420,
			"max":[
				1.0099586248397827,
				0.5504973530769348,
				1.009958267211914
			],
			"min":[
				-1.0099588632583618,
				-1.394984245300293,
				-1.0099592208862305
			],
			"type":"VEC3"
		},
		{
			"bufferView":50,
			"componentType":5126,
			"count":420,
			"type":"VEC3"
		},
		{
			"bufferView":51,
			"componentType":5126,
			"count":420,
			"type":"VEC2"
		},
		{
			"bufferView":52,
			"componentType":5123,
			"count":1908,
			"type":"SCALAR"
		},
		{
			"bufferView":53,
			"componentType":5126,
			"count":40,
			"max":[
				0.024128466844558716,
				0.35693374276161194,
				0.02412840723991394
			],
			"min":[
				-0.024128228425979614,
				0.22492855787277222,
				-0.02412828803062439
			],
			"type":"VEC3"
		},
		{
			"bufferView":54,
			"componentType":5126,
			"count":40,
			"type":"VEC3"
		},
		{
			"bufferView":55,
			"componentType":5126,
			"count":40,
			"type":"VEC2"
		},
		{
			"bufferView":56,
			"componentType":5123,
			"count":60,
			"type":"SCALAR"
		},
		{
			"bufferView":57,
			"componentType":5126,
			"count":18,
			"max":[
				0.7507587671279907,
				-0.010642197914421558,
				13.34085464477539
			],
			"min":[
				-0.77230304479599,
				-0.13274875283241272,
				-9.632038116455078
			],
			"type":"VEC3"
		},
		{
			"bufferView":58,
			"componentType":5126,
			"count":18,
			"type":"VEC3"
		},
		{
			"bufferView":59,
			"componentType":5126,
			"count":18,
			"type":"VEC2"
		},
		{
			"bufferView":60,
			"componentType":5126,
			"count":18,
			"type":"VEC2"
		},
		{
			"bufferView":61,
			"componentType":5123,
			"count":30,
			"type":"SCALAR"
		},
		{
			"bufferView":62,
			"componentType":5126,
			"count":3204,
			"max":[
				0.7242023944854736,
				0.05443629249930382,
				13.161455154418945
			],
			"min":[
				-0.77288818359375,
				-1.8271889686584473,
				-0.9207323789596558
			],
			"type":"VEC3"
		},
		{
			"bufferView":63,
			"componentType":5126,
			"count":3204,
			"type":"VEC3"
		},
		{
			"bufferView":64,
			"componentType":5126,
			"count":3204,
			"type":"VEC2"
		},
		{
			"bufferView":65,
			"componentType":5126,
			"count":3204,
			"type":"VEC2"
		},
		{
			"bufferView":66,
			"componentType":5123,
			"count":7758,
			"type":"SCALAR"
		}
	],
	"bufferViews":[
		{
			"buffer":0,
			"byteLength":64176,
			"byteOffset":0,
			"target":34962
		},
		{
			"buffer":0,
			"byteLength":64176,
			"byteOffset":64176,
			"target":34962
		},
		{
			"buffer":0,
			"byteLength":42784,
			"byteOffset":128352,
			"target":34962
		},
		{
			"buffer":0,
			"byteLength":42784,
			"byteOffset":171136,
			"target":34962
		},
		{
			"buffer":0,
			"byteLength":22032,
			"byteOffset":213920,
			"target":34963
		},
		{
			"buffer":0,
			"byteLength":144,
			"byteOffset":235952,
			"target":34962
		},
		{
			"buffer":0,
			"byteLength":144,
			"byteOffset":236096,
			"target":34962
		},
		{
			"buffer":0,
			"byteLength":96,
			"byteOffset":236240,
			"target":34962
		},
		{
			"buffer":0,
			"byteLength":48,
			"byteOffset":236336,
			"target":34963
		},
		{
			"buffer":0,
			"byteLength":42384,
			"byteOffset":236384,
			"target":34962
		},
		{
			"buffer":0,
			"byteLength":42384,
			"byteOffset":278768,
			"target":34962
		},
		{
			"buffer":0,
			"byteLength":28256,
			"byteOffset":321152,
			"target":34962
		},
		{
			"buffer":0,
			"byteLength":13728,
			"byteOffset":349408,
			"target":34963
		},
		{
			"buffer":0,
			"byteLength":960,
			"byteOffset":363136,
			"target":34962
		},
		{
			"buffer":0,
			"byteLength":960,
			"byteOffset":364096,
			"target":34962
		},
		{
			"buffer":0,
			"byteLength":640,
			"byteOffset":365056,
			"target":34962
		},
		{
			"buffer":0,
			"byteLength":264,
			"byteOffset":365696,
			"target":34963
		},
		{
			"buffer":0,
			"byteLength":263016,
			"byteOffset":365960,
			"target":34962
		},
		{
			"buffer":0,
			"byteLength":263016,
			"byteOffset":628976,
			"target":34962
		},
		{
			"buffer":0,
			"byteLength":175344,
			"byteOffset":891992,
			"target":34962
		},
		{
			"buffer":0,
			"byteLength":47988,
			"byteOffset":1067336,
			"target":34963
		},
		{
			"buffer":0,
			"byteLength":2940,
			"byteOffset":1115324,
			"target":34962
		},
		{
			"buffer":0,
			"byteLength":2940,
			"byteOffset":1118264,
			"target":34962
		},
		{
			"buffer":0,
			"byteLength":1960,
			"byteOffset":1121204,
			"target":34962
		},
		{
			"buffer":0,
			"byteLength":936,
			"byteOffset":1123164,
			"target":34963
		},
		{
			"buffer":0,
			"byteLength":336,
			"byteOffset":1124100,
			"target":34962
		},
		{
			"buffer":0,
			"byteLength":336,
			"byteOffset":1124436,
			"target":34962
		},
		{
			"buffer":0,
			"byteLength":224,
			"byteOffset":1124772,
			"target":34962
		},
		{
			"buffer":0,
			"byteLength":108,
			"byteOffset":1124996,
			"target":34963
		},
		{
			"buffer":0,
			"byteLength":864,
			"byteOffset":1125104,
			"target":34962
		},
		{
			"buffer":0,
			"byteLength":864,
			"byteOffset":1125968,
			"target":34962
		},
		{
			"buffer":0,
			"byteLength":576,
			"byteOffset":1126832,
			"target":34962
		},
		{
			"buffer":0,
			"byteLength":288,
			"byteOffset":1127408,
			"target":34963
		},
		{
			"buffer":0,
			"byteLength":48,
			"byteOffset":1127696,
			"target":34962
		},
		{
			"buffer":0,
			"byteLength":48,
			"byteOffset":1127744,
			"target":34962
		},
		{
			"buffer":0,
			"byteLength":32,
			"byteOffset":1127792,
			"target":34962
		},
		{
			"buffer":0,
			"byteLength":12,
			"byteOffset":1127824,
			"target":34963
		},
		{
			"buffer":0,
			"byteLength":17112,
			"byteOffset":1127836,
			"target":34962
		},
		{
			"buffer":0,
			"byteLength":17112,
			"byteOffset":1144948,
			"target":34962
		},
		{
			"buffer":0,
			"byteLength":11408,
			"byteOffset":1162060,
			"target":34962
		},
		{
			"buffer":0,
			"byteLength":8160,
			"byteOffset":1173468,
			"target":34963
		},
		{
			"buffer":0,
			"byteLength":3264,
			"byteOffset":1181628,
			"target":34962
		},
		{
			"buffer":0,
			"byteLength":3264,
			"byteOffset":1184892,
			"target":34962
		},
		{
			"buffer":0,
			"byteLength":2176,
			"byteOffset":1188156,
			"target":34962
		},
		{
			"buffer":0,
			"byteLength":840,
			"byteOffset":1190332,
			"target":34963
		},
		{
			"buffer":0,
			"byteLength":1152,
			"byteOffset":1191172,
			"target":34962
		},
		{
			"buffer":0,
			"byteLength":1152,
			"byteOffset":1192324,
			"target":34962
		},
		{
			"buffer":0,
			"byteLength":768,
			"byteOffset":1193476,
			"target":34962
		},
		{
			"buffer":0,
			"byteLength":1128,
			"byteOffset":1194244,
			"target":34963
		},
		{
			"buffer":0,
			"byteLength":5040,
			"byteOffset":1195372,
			"target":34962
		},
		{
			"buffer":0,
			"byteLength":5040,
			"byteOffset":1200412,
			"target":34962
		},
		{
			"buffer":0,
			"byteLength":3360,
			"byteOffset":1205452,
			"target":34962
		},
		{
			"buffer":0,
			"byteLength":3816,
			"byteOffset":1208812,
			"target":34963
		},
		{
			"buffer":0,
			"byteLength":480,
			"byteOffset":1212628,
			"target":34962
		},
		{
			"buffer":0,
			"byteLength":480,
			"byteOffset":1213108,
			"target":34962
		},
		{
			"buffer":0,
			"byteLength":320,
			"byteOffset":1213588,
			"target":34962
		},
		{
			"buffer":0,
			"byteLength":120,
			"byteOffset":1213908,
			"target":34963
		},
		{
			"buffer":0,
			"byteLength":216,
			"byteOffset":1214028,
			"target":34962
		},
		{
			"buffer":0,
			"byteLength":216,
			"byteOffset":1214244,
			"target":34962
		},
		{
			"buffer":0,
			"byteLength":144,
			"byteOffset":1214460,
			"target":34962
		},
		{
			"buffer":0,
			"byteLength":144,
			"byteOffset":1214604,
			"target":34962
		},
		{
			"buffer":0,
			"byteLength":60,
			"byteOffset":1214748,
			"target":34963
		},
		{
			"buffer":0,
			"byteLength":38448,
			"byteOffset":1214808,
			"target":34962
		},
		{
			"buffer":0,
			"byteLength":38448,
			"byteOffset":1253256,
			"target":34962
		},
		{
			"buffer":0,
			"byteLength":25632,
			"byteOffset":1291704,
			"target":34962
		},
		{
			"buffer":0,
			"byteLength":25632,
			"byteOffset":1317336,
			"target":34962
		},
		{
			"buffer":0,
			"byteLength":15516,
			"byteOffset":1342968,
			"target":34963
		}
	],
	"samplers":[
		{
			"magFilter":9729,
			"minFilter":9987
		}
	],
	"buffers":[
		{
			"byteLength":1358484,
			"uri":"proj_0617.bin"
		}
	]
}
